<?xml version="1.0" encoding="UTF-8"?>
<svg xmlns="http://www.w3.org/2000/svg" xmlns:xlink="http://www.w3.org/1999/xlink" width="120px" height="120px" viewBox="0 0 120 120" version="1.1">
<g id="surface1">
<path style=" stroke:none;fill-rule:nonzero;fill:rgb(100%,100%,100%);fill-opacity:1;" d="M 59.933594 119.207031 C 39.300781 119.207031 20.480469 107.863281 10.8125 89.605469 L 10.160156 88.375 L 10.8125 87.140625 C 16.316406 76.75 25.164062 68.203125 35.730469 63.078125 C 39.226562 61.386719 43.308594 61.410156 46.929688 63.152344 C 51.003906 65.109375 55.378906 66.105469 59.929688 66.105469 C 64.480469 66.105469 68.859375 65.109375 72.933594 63.152344 C 76.558594 61.410156 80.640625 61.386719 84.132812 63.078125 C 94.699219 68.203125 103.546875 76.75 109.050781 87.140625 L 109.703125 88.375 L 109.050781 89.605469 C 99.386719 107.863281 80.5625 119.207031 59.933594 119.207031 Z M 16.144531 88.375 C 25.078125 104.179688 41.726562 113.9375 59.933594 113.9375 C 78.140625 113.9375 94.789062 104.179688 103.71875 88.375 C 98.707031 79.523438 90.980469 72.257812 81.835938 67.824219 C 79.796875 66.832031 77.382812 66.859375 75.21875 67.902344 C 70.421875 70.207031 65.28125 71.375 59.933594 71.375 C 54.585938 71.375 49.441406 70.207031 44.648438 67.902344 C 42.484375 66.863281 40.070312 66.832031 38.03125 67.824219 C 28.886719 72.257812 21.160156 79.523438 16.144531 88.375 Z M 16.144531 88.375 "/>
<path style=" stroke:none;fill-rule:nonzero;fill:rgb(100%,100%,100%);fill-opacity:1;" d="M 59.933594 56.832031 C 44.445312 56.832031 31.847656 44.230469 31.847656 28.746094 C 31.847656 13.257812 44.445312 0.660156 59.933594 0.660156 C 75.417969 0.660156 88.019531 13.257812 88.019531 28.746094 C 88.019531 44.234375 75.417969 56.832031 59.933594 56.832031 Z M 59.933594 5.929688 C 47.351562 5.929688 37.113281 16.164062 37.113281 28.746094 C 37.113281 41.328125 47.351562 51.5625 59.933594 51.5625 C 72.515625 51.5625 82.75 41.328125 82.75 28.746094 C 82.75 16.164062 72.515625 5.929688 59.933594 5.929688 Z M 59.933594 5.929688 "/>
</g>
</svg>
