<svg xmlns="http://www.w3.org/2000/svg" xmlns:xlink="http://www.w3.org/1999/xlink" version="1.1" width="256" height="256" viewBox="0 0 256 256" xml:space="preserve">

<defs>
</defs>
<g style="stroke: none; stroke-width: 0; stroke-dasharray: none; stroke-linecap: butt; stroke-linejoin: miter; stroke-miterlimit: 10; fill: none; fill-rule: nonzero; opacity: 1;" transform="translate(1.4065934065934016 1.4065934065934016) scale(2.81 2.81)" >
	<path d="M 45 90 c -15.663 0 -29.952 -8.61 -37.292 -22.472 l -0.496 -0.936 l 0.496 -0.936 c 4.178 -7.889 10.896 -14.376 18.918 -18.267 c 2.654 -1.286 5.752 -1.266 8.501 0.055 c 3.095 1.487 6.417 2.241 9.872 2.241 c 3.455 0 6.777 -0.754 9.872 -2.241 c 2.752 -1.321 5.85 -1.341 8.502 -0.055 c 8.022 3.891 14.74 10.378 18.917 18.267 l 0.495 0.936 l -0.495 0.936 C 74.952 81.39 60.663 90 45 90 z M 11.756 66.594 C 18.539 78.591 31.179 86 45 86 c 13.822 0 26.462 -7.408 33.243 -19.406 c -3.807 -6.72 -9.671 -12.236 -16.615 -15.604 l 0 0 c -1.548 -0.753 -3.381 -0.731 -5.023 0.061 C 52.964 52.8 49.06 53.687 45 53.687 c -4.06 0 -7.964 -0.887 -11.604 -2.636 c -1.643 -0.789 -3.475 -0.813 -5.023 -0.061 C 21.429 54.357 15.564 59.874 11.756 66.594 z" style="stroke: none; stroke-width: 1; stroke-dasharray: none; stroke-linecap: butt; stroke-linejoin: miter; stroke-miterlimit: 10; fill: rgb(255,255,255); fill-rule: nonzero; opacity: 1;" transform=" matrix(1 0 0 1 0 0) " stroke-linecap="round" />
	<path d="M 45 42.645 c -11.757 0 -21.323 -9.565 -21.323 -21.322 S 33.243 0 45 0 c 11.757 0 21.322 9.565 21.322 21.323 S 56.757 42.645 45 42.645 z M 45 4 c -9.552 0 -17.323 7.771 -17.323 17.323 S 35.448 38.645 45 38.645 s 17.322 -7.771 17.322 -17.322 S 54.552 4 45 4 z" style="stroke: none; stroke-width: 1; stroke-dasharray: none; stroke-linecap: butt; stroke-linejoin: miter; stroke-miterlimit: 10; fill: rgb(255,255,255); fill-rule: nonzero; opacity: 1;" transform=" matrix(1 0 0 1 0 0) " stroke-linecap="round" />
</g>
</svg>